<svg viewBox="0 0 700 700" fill="none" xmlns="http://www.w3.org/2000/svg">
<path d="M700 350C700 543.3 543.3 700 350 700C156.7 700 0 543.3 0 350C0 156.7 156.7 0 350 0C543.3 0 700 156.7 700 350Z" fill="white"/>
<path d="M175 50H325V650H175V50Z" fill="#B4F8C8"/>
<path d="M700 350C700 543.3 543.3 700 350 700C156.7 700 0 543.3 0 350C0 156.7 156.7 0 350 0C543.3 0 700 156.7 700 350Z" fill="white"/>
<path d="M175 350C257.843 350 325 282.843 325 200C325 117.157 257.843 50 175 50V350Z" fill="#A0E7E5"/>
<path d="M175 650C257.843 650 325 582.843 325 500C325 417.157 257.843 350 175 350V650Z" fill="#A0E7E5"/>
<path d="M325 50H525V650H325V50Z" fill="#B4F8C8"/>
<path d="M325 50L437.333 385.5L525 650H325V50Z" fill="#A0E7E5"/>
</svg>
